<mxfile host="Electron" agent="Mozilla/5.0 (Windows NT 10.0; Win64; x64) AppleWebKit/537.36 (KHTML, like Gecko) draw.io/28.2.5 Chrome/138.0.7204.251 Electron/37.6.1 Safari/537.36" scale="1" border="0" version="28.2.5">
  <diagram name="Página-1" id="Bal2X1R5Q2hq3wp9pTC3">
    <mxGraphModel dx="2642" dy="976" grid="1" gridSize="10" guides="1" tooltips="1" connect="1" arrows="1" fold="1" page="1" pageScale="1" pageWidth="827" pageHeight="1169" math="0" shadow="0">
      <root>
        <mxCell id="0" />
        <mxCell id="1" parent="0" />
        <mxCell id="Z7hbolVClJEuScZ4HqBD-5" value="AUTORIA" style="swimlane;fontStyle=0;childLayout=stackLayout;horizontal=1;startSize=26;fillColor=none;horizontalStack=0;resizeParent=1;resizeParentMax=0;resizeLast=0;collapsible=1;marginBottom=0;whiteSpace=wrap;html=1;" parent="1" vertex="1">
          <mxGeometry x="-40" y="1050" width="180" height="104" as="geometry" />
        </mxCell>
        <mxCell id="Z7hbolVClJEuScZ4HqBD-6" value="ALEJANDRO HERNANDES" style="text;strokeColor=none;fillColor=none;align=left;verticalAlign=top;spacingLeft=4;spacingRight=4;overflow=hidden;rotatable=0;points=[[0,0.5],[1,0.5]];portConstraint=eastwest;whiteSpace=wrap;html=1;" parent="Z7hbolVClJEuScZ4HqBD-5" vertex="1">
          <mxGeometry y="26" width="180" height="26" as="geometry" />
        </mxCell>
        <mxCell id="Z7hbolVClJEuScZ4HqBD-7" value="DANIEL VELOZA&amp;nbsp;" style="text;strokeColor=none;fillColor=none;align=left;verticalAlign=top;spacingLeft=4;spacingRight=4;overflow=hidden;rotatable=0;points=[[0,0.5],[1,0.5]];portConstraint=eastwest;whiteSpace=wrap;html=1;" parent="Z7hbolVClJEuScZ4HqBD-5" vertex="1">
          <mxGeometry y="52" width="180" height="26" as="geometry" />
        </mxCell>
        <mxCell id="Z7hbolVClJEuScZ4HqBD-8" value="FECHA: 21/10/2025" style="text;strokeColor=none;fillColor=none;align=left;verticalAlign=top;spacingLeft=4;spacingRight=4;overflow=hidden;rotatable=0;points=[[0,0.5],[1,0.5]];portConstraint=eastwest;whiteSpace=wrap;html=1;" parent="Z7hbolVClJEuScZ4HqBD-5" vertex="1">
          <mxGeometry y="78" width="180" height="26" as="geometry" />
        </mxCell>
        <mxCell id="SlBVG8sBNqWLVxygI4yR-41" value="" style="edgeStyle=orthogonalEdgeStyle;rounded=0;orthogonalLoop=1;jettySize=auto;html=1;" parent="1" source="SlBVG8sBNqWLVxygI4yR-1" target="SlBVG8sBNqWLVxygI4yR-7" edge="1">
          <mxGeometry relative="1" as="geometry" />
        </mxCell>
        <mxCell id="SlBVG8sBNqWLVxygI4yR-1" value="Pasajero" style="shape=umlActor;verticalLabelPosition=bottom;verticalAlign=top;html=1;outlineConnect=0;" parent="1" vertex="1">
          <mxGeometry x="160" y="462.57" width="20" height="40" as="geometry" />
        </mxCell>
        <mxCell id="SlBVG8sBNqWLVxygI4yR-2" value="web UI" style="rounded=0;whiteSpace=wrap;html=1;" parent="1" vertex="1">
          <mxGeometry x="280" y="482.57" width="120" height="30" as="geometry" />
        </mxCell>
        <mxCell id="SlBVG8sBNqWLVxygI4yR-3" value="Reservation" style="rounded=0;whiteSpace=wrap;html=1;" parent="1" vertex="1">
          <mxGeometry x="440" y="482.57" width="120" height="30" as="geometry" />
        </mxCell>
        <mxCell id="SlBVG8sBNqWLVxygI4yR-4" value="FlightService" style="rounded=0;whiteSpace=wrap;html=1;" parent="1" vertex="1">
          <mxGeometry x="790" y="484" width="120" height="30" as="geometry" />
        </mxCell>
        <mxCell id="SlBVG8sBNqWLVxygI4yR-5" value="PaymentSimulator" style="rounded=0;whiteSpace=wrap;html=1;" parent="1" vertex="1">
          <mxGeometry x="952" y="484" width="120" height="30" as="geometry" />
        </mxCell>
        <mxCell id="SlBVG8sBNqWLVxygI4yR-6" value="" style="endArrow=classic;html=1;rounded=0;" parent="1" edge="1">
          <mxGeometry width="50" height="50" relative="1" as="geometry">
            <mxPoint x="170" y="632.5699999999999" as="sourcePoint" />
            <mxPoint x="340" y="632.5699999999999" as="targetPoint" />
          </mxGeometry>
        </mxCell>
        <mxCell id="SlBVG8sBNqWLVxygI4yR-7" value="seleccionar Vuelo" style="text;html=1;align=center;verticalAlign=middle;whiteSpace=wrap;rounded=0;" parent="1" vertex="1">
          <mxGeometry x="170" y="602.5699999999999" width="170" height="30" as="geometry" />
        </mxCell>
        <mxCell id="SlBVG8sBNqWLVxygI4yR-8" value="" style="endArrow=none;html=1;rounded=0;dashed=1;dashPattern=8 8;" parent="1" edge="1">
          <mxGeometry width="50" height="50" relative="1" as="geometry">
            <mxPoint x="170" y="1152.57" as="sourcePoint" />
            <mxPoint x="170" y="532.5699999999999" as="targetPoint" />
          </mxGeometry>
        </mxCell>
        <mxCell id="SlBVG8sBNqWLVxygI4yR-9" value="" style="endArrow=none;html=1;rounded=0;dashed=1;dashPattern=8 8;" parent="1" edge="1">
          <mxGeometry width="50" height="50" relative="1" as="geometry">
            <mxPoint x="340" y="1152.57" as="sourcePoint" />
            <mxPoint x="339.5" y="532.5699999999999" as="targetPoint" />
          </mxGeometry>
        </mxCell>
        <mxCell id="vnQQ60epX4eY9GXNmi0R-1" value="Reservas&amp;nbsp;" style="edgeLabel;html=1;align=center;verticalAlign=middle;resizable=0;points=[];" vertex="1" connectable="0" parent="SlBVG8sBNqWLVxygI4yR-9">
          <mxGeometry x="-0.1009" y="6" relative="1" as="geometry">
            <mxPoint x="86" y="-174" as="offset" />
          </mxGeometry>
        </mxCell>
        <mxCell id="SlBVG8sBNqWLVxygI4yR-10" value="" style="endArrow=none;html=1;rounded=0;dashed=1;dashPattern=8 8;" parent="1" edge="1">
          <mxGeometry width="50" height="50" relative="1" as="geometry">
            <mxPoint x="500" y="1152.57" as="sourcePoint" />
            <mxPoint x="499.5" y="532.5699999999999" as="targetPoint" />
          </mxGeometry>
        </mxCell>
        <mxCell id="SlBVG8sBNqWLVxygI4yR-11" value="" style="endArrow=none;html=1;rounded=0;dashed=1;dashPattern=8 8;" parent="1" edge="1">
          <mxGeometry width="50" height="50" relative="1" as="geometry">
            <mxPoint x="850" y="1154" as="sourcePoint" />
            <mxPoint x="849.5" y="533.9999999999999" as="targetPoint" />
          </mxGeometry>
        </mxCell>
        <mxCell id="SlBVG8sBNqWLVxygI4yR-12" value="" style="endArrow=none;html=1;rounded=0;dashed=1;dashPattern=8 8;" parent="1" edge="1">
          <mxGeometry width="50" height="50" relative="1" as="geometry">
            <mxPoint x="1010" y="1154" as="sourcePoint" />
            <mxPoint x="1011.5" y="533.9999999999999" as="targetPoint" />
          </mxGeometry>
        </mxCell>
        <mxCell id="SlBVG8sBNqWLVxygI4yR-13" value="" style="endArrow=classic;html=1;rounded=0;" parent="1" edge="1">
          <mxGeometry width="50" height="50" relative="1" as="geometry">
            <mxPoint x="170" y="672.5699999999999" as="sourcePoint" />
            <mxPoint x="340" y="672.5699999999999" as="targetPoint" />
          </mxGeometry>
        </mxCell>
        <mxCell id="SlBVG8sBNqWLVxygI4yR-14" style="edgeStyle=orthogonalEdgeStyle;rounded=0;orthogonalLoop=1;jettySize=auto;html=1;exitX=1;exitY=0;exitDx=0;exitDy=0;entryX=0.5;entryY=0;entryDx=0;entryDy=0;" parent="1" source="SlBVG8sBNqWLVxygI4yR-15" target="SlBVG8sBNqWLVxygI4yR-27" edge="1">
          <mxGeometry relative="1" as="geometry" />
        </mxCell>
        <mxCell id="SlBVG8sBNqWLVxygI4yR-15" value="(vuelool, pasajeros[])" style="text;html=1;align=center;verticalAlign=middle;whiteSpace=wrap;rounded=0;" parent="1" vertex="1">
          <mxGeometry x="170" y="632.5699999999999" width="170" height="30" as="geometry" />
        </mxCell>
        <mxCell id="SlBVG8sBNqWLVxygI4yR-16" value="" style="endArrow=classic;html=1;rounded=0;" parent="1" edge="1">
          <mxGeometry width="50" height="50" relative="1" as="geometry">
            <mxPoint x="340" y="712.5699999999999" as="sourcePoint" />
            <mxPoint x="500" y="712.5699999999999" as="targetPoint" />
          </mxGeometry>
        </mxCell>
        <mxCell id="SlBVG8sBNqWLVxygI4yR-18" value="" style="endArrow=classic;html=1;rounded=0;" parent="1" edge="1">
          <mxGeometry width="50" height="50" relative="1" as="geometry">
            <mxPoint x="500" y="792.5699999999999" as="sourcePoint" />
            <mxPoint x="1170" y="790" as="targetPoint" />
          </mxGeometry>
        </mxCell>
        <mxCell id="SlBVG8sBNqWLVxygI4yR-22" value="" style="endArrow=classic;html=1;rounded=0;" parent="1" edge="1">
          <mxGeometry width="50" height="50" relative="1" as="geometry">
            <mxPoint x="1170" y="873.9999999999999" as="sourcePoint" />
            <mxPoint x="690" y="874" as="targetPoint" />
          </mxGeometry>
        </mxCell>
        <mxCell id="SlBVG8sBNqWLVxygI4yR-27" value="(Opción A: Si hay asientos disponibles)&lt;div&gt;marca asientos como LOCKED&lt;/div&gt;" style="text;html=1;align=center;verticalAlign=middle;whiteSpace=wrap;rounded=0;" parent="1" vertex="1">
          <mxGeometry x="520" y="754" width="300" height="30" as="geometry" />
        </mxCell>
        <mxCell id="SlBVG8sBNqWLVxygI4yR-29" value="" style="endArrow=none;html=1;rounded=0;dashed=1;dashPattern=8 8;" parent="1" edge="1">
          <mxGeometry width="50" height="50" relative="1" as="geometry">
            <mxPoint x="1170" y="1154" as="sourcePoint" />
            <mxPoint x="1170" y="538.9999999999999" as="targetPoint" />
          </mxGeometry>
        </mxCell>
        <mxCell id="SlBVG8sBNqWLVxygI4yR-37" value="" style="endArrow=none;html=1;rounded=0;" parent="1" edge="1">
          <mxGeometry width="50" height="50" relative="1" as="geometry">
            <mxPoint x="170" y="1152.57" as="sourcePoint" />
            <mxPoint x="1500" y="1153" as="targetPoint" />
          </mxGeometry>
        </mxCell>
        <mxCell id="vnQQ60epX4eY9GXNmi0R-29" value="&lt;br&gt;&lt;div&gt;&lt;br&gt;&lt;/div&gt;" style="edgeLabel;html=1;align=center;verticalAlign=middle;resizable=0;points=[];" vertex="1" connectable="0" parent="SlBVG8sBNqWLVxygI4yR-37">
          <mxGeometry x="0.9036" y="2" relative="1" as="geometry">
            <mxPoint as="offset" />
          </mxGeometry>
        </mxCell>
        <mxCell id="paDaiStU4DnnT-3Gmu_R-1" value="DataBase" style="rounded=0;whiteSpace=wrap;html=1;" parent="1" vertex="1">
          <mxGeometry x="1110" y="484" width="120" height="30" as="geometry" />
        </mxCell>
        <mxCell id="paDaiStU4DnnT-3Gmu_R-2" value="TickerService" style="rounded=0;whiteSpace=wrap;html=1;" parent="1" vertex="1">
          <mxGeometry x="1280" y="484" width="120" height="30" as="geometry" />
        </mxCell>
        <mxCell id="paDaiStU4DnnT-3Gmu_R-3" value="" style="endArrow=none;html=1;rounded=0;dashed=1;dashPattern=8 8;" parent="1" edge="1">
          <mxGeometry width="50" height="50" relative="1" as="geometry">
            <mxPoint x="1338" y="1154" as="sourcePoint" />
            <mxPoint x="1339.5" y="533.9999999999999" as="targetPoint" />
          </mxGeometry>
        </mxCell>
        <mxCell id="paDaiStU4DnnT-3Gmu_R-5" value="" style="endArrow=none;html=1;rounded=0;dashed=1;dashPattern=8 8;" parent="1" edge="1">
          <mxGeometry width="50" height="50" relative="1" as="geometry">
            <mxPoint x="1498" y="1154" as="sourcePoint" />
            <mxPoint x="1498" y="538.9999999999999" as="targetPoint" />
          </mxGeometry>
        </mxCell>
        <mxCell id="paDaiStU4DnnT-3Gmu_R-6" value="EmailService" style="rounded=0;whiteSpace=wrap;html=1;" parent="1" vertex="1">
          <mxGeometry x="1438" y="484" width="120" height="30" as="geometry" />
        </mxCell>
        <mxCell id="paDaiStU4DnnT-3Gmu_R-9" value="" style="endArrow=classic;html=1;rounded=0;" parent="1" edge="1">
          <mxGeometry width="50" height="50" relative="1" as="geometry">
            <mxPoint x="690" y="920" as="sourcePoint" />
            <mxPoint x="170" y="920" as="targetPoint" />
          </mxGeometry>
        </mxCell>
        <mxCell id="vnQQ60epX4eY9GXNmi0R-2" value="SeatService" style="rounded=0;whiteSpace=wrap;html=1;" vertex="1" parent="1">
          <mxGeometry x="630" y="482.57" width="120" height="30" as="geometry" />
        </mxCell>
        <mxCell id="vnQQ60epX4eY9GXNmi0R-3" value="" style="endArrow=none;html=1;rounded=0;dashed=1;dashPattern=8 8;" edge="1" parent="1">
          <mxGeometry width="50" height="50" relative="1" as="geometry">
            <mxPoint x="690" y="1152.57" as="sourcePoint" />
            <mxPoint x="689.5" y="532.5699999999999" as="targetPoint" />
          </mxGeometry>
        </mxCell>
        <mxCell id="vnQQ60epX4eY9GXNmi0R-5" value="" style="endArrow=classic;html=1;rounded=0;" edge="1" parent="1">
          <mxGeometry width="50" height="50" relative="1" as="geometry">
            <mxPoint x="340" y="753.38" as="sourcePoint" />
            <mxPoint x="500" y="753" as="targetPoint" />
          </mxGeometry>
        </mxCell>
        <mxCell id="vnQQ60epX4eY9GXNmi0R-6" value="&lt;span style=&quot;background-color: rgb(255, 255, 255);&quot;&gt;POST/reservas/pre-lock&amp;nbsp;&lt;/span&gt;&lt;div&gt;&lt;span style=&quot;background-color: rgb(255, 255, 255);&quot;&gt;(info de pasajeros, asientos&lt;/span&gt;&lt;/div&gt;" style="text;html=1;align=center;verticalAlign=middle;resizable=0;points=[];autosize=1;strokeColor=none;fillColor=none;" vertex="1" parent="1">
          <mxGeometry x="330" y="714" width="170" height="40" as="geometry" />
        </mxCell>
        <mxCell id="vnQQ60epX4eY9GXNmi0R-8" value="&lt;span style=&quot;color: rgb(0, 0, 0); font-family: Helvetica; font-size: 12px; font-style: normal; font-variant-ligatures: normal; font-variant-caps: normal; font-weight: 400; letter-spacing: normal; orphans: 2; text-align: center; text-indent: 0px; text-transform: none; widows: 2; word-spacing: 0px; -webkit-text-stroke-width: 0px; white-space: normal; text-decoration-thickness: initial; text-decoration-style: initial; text-decoration-color: initial; float: none; background-color: rgb(255, 255, 255); display: inline !important;&quot;&gt;Retorna OK (idLock)&lt;/span&gt;" style="text;whiteSpace=wrap;html=1;" vertex="1" parent="1">
          <mxGeometry x="1040" y="840" width="290" height="40" as="geometry" />
        </mxCell>
        <mxCell id="vnQQ60epX4eY9GXNmi0R-10" value="Asiento Reservado" style="text;html=1;align=center;verticalAlign=middle;resizable=0;points=[];autosize=1;strokeColor=none;fillColor=none;" vertex="1" parent="1">
          <mxGeometry x="540" y="890" width="120" height="30" as="geometry" />
        </mxCell>
        <mxCell id="vnQQ60epX4eY9GXNmi0R-22" value="(Opción B: Si no hay asientos disponibles)" style="text;html=1;align=center;verticalAlign=middle;whiteSpace=wrap;rounded=0;" vertex="1" parent="1">
          <mxGeometry x="550" y="960" width="189" height="30" as="geometry" />
        </mxCell>
        <mxCell id="vnQQ60epX4eY9GXNmi0R-23" value="" style="endArrow=classic;html=1;rounded=0;" edge="1" parent="1">
          <mxGeometry width="50" height="50" relative="1" as="geometry">
            <mxPoint x="500" y="1000" as="sourcePoint" />
            <mxPoint x="1175.5" y="1000.4300000000001" as="targetPoint" />
          </mxGeometry>
        </mxCell>
        <mxCell id="vnQQ60epX4eY9GXNmi0R-24" value="" style="endArrow=classic;html=1;rounded=0;" edge="1" parent="1">
          <mxGeometry width="50" height="50" relative="1" as="geometry">
            <mxPoint x="1175.5" y="1080" as="sourcePoint" />
            <mxPoint x="855.5" y="1080" as="targetPoint" />
          </mxGeometry>
        </mxCell>
        <mxCell id="vnQQ60epX4eY9GXNmi0R-25" value="resultado" style="text;html=1;align=center;verticalAlign=middle;whiteSpace=wrap;rounded=0;" vertex="1" parent="1">
          <mxGeometry x="1015.5" y="1037.43" width="160" height="30" as="geometry" />
        </mxCell>
        <mxCell id="vnQQ60epX4eY9GXNmi0R-26" value="&lt;div style=&quot;&quot;&gt;Sin asientos disponibles&lt;/div&gt;" style="text;whiteSpace=wrap;html=1;align=center;" vertex="1" parent="1">
          <mxGeometry x="674.5" y="1087.43" width="190" height="40" as="geometry" />
        </mxCell>
        <mxCell id="vnQQ60epX4eY9GXNmi0R-27" value="" style="endArrow=classic;html=1;rounded=0;" edge="1" parent="1">
          <mxGeometry width="50" height="50" relative="1" as="geometry">
            <mxPoint x="855.5" y="1120" as="sourcePoint" />
            <mxPoint x="165.5" y="1120" as="targetPoint" />
          </mxGeometry>
        </mxCell>
      </root>
    </mxGraphModel>
  </diagram>
</mxfile>
